<mxfile modified="2023-09-15T00:08:28.116Z" host="app.diagrams.net" agent="Mozilla/5.0 (Windows NT 10.0; Win64; x64) AppleWebKit/537.36 (KHTML, like Gecko) Chrome/116.0.0.0 Safari/537.36 Edg/116.0.1938.76" etag="LhrvJeBLt5VaMcVtqIt5" version="21.7.5" type="github">
  <diagram id="Ht1M8jgEwFfnCIfOTk4-" name="Page-1">
    <mxGraphModel dx="1132" dy="829" grid="1" gridSize="10" guides="1" tooltips="1" connect="1" arrows="1" fold="1" page="1" pageScale="1" pageWidth="1169" pageHeight="827" math="0" shadow="0">
      <root>
        <mxCell id="0" />
        <mxCell id="1" parent="0" />
        <mxCell id="-QjtrjUzRDEMRZ5MF8oH-9" value="1" style="rounded=1;whiteSpace=wrap;html=1;fillColor=#007CBD;strokeColor=none;fontColor=#FFFFFF;fontStyle=1;fontSize=22;" parent="1" vertex="1">
          <mxGeometry x="505.5" y="444" width="40" height="38" as="geometry" />
        </mxCell>
        <mxCell id="-QjtrjUzRDEMRZ5MF8oH-27" value="2" style="rounded=1;whiteSpace=wrap;html=1;fillColor=#007CBD;strokeColor=none;fontColor=#FFFFFF;fontStyle=1;fontSize=22;" parent="1" vertex="1">
          <mxGeometry x="536" y="286.5" width="40" height="38" as="geometry" />
        </mxCell>
        <mxCell id="-QjtrjUzRDEMRZ5MF8oH-29" value="4" style="rounded=1;whiteSpace=wrap;html=1;fillColor=#007CBD;strokeColor=none;fontColor=#FFFFFF;fontStyle=1;fontSize=22;" parent="1" vertex="1">
          <mxGeometry x="704.5" y="520" width="40" height="38" as="geometry" />
        </mxCell>
        <mxCell id="-QjtrjUzRDEMRZ5MF8oH-30" value="3" style="rounded=1;whiteSpace=wrap;html=1;fillColor=#007CBD;strokeColor=none;fontColor=#FFFFFF;fontStyle=1;fontSize=22;" parent="1" vertex="1">
          <mxGeometry x="591.5" y="174.5" width="40" height="38" as="geometry" />
        </mxCell>
        <mxCell id="-QjtrjUzRDEMRZ5MF8oH-47" value="Migrating to an Architecture that support Experimentation" style="text;html=1;resizable=0;points=[];autosize=1;align=left;verticalAlign=top;spacingTop=-4;fontSize=30;fontStyle=1" parent="1" vertex="1">
          <mxGeometry x="52.5" y="40" width="850" height="40" as="geometry" />
        </mxCell>
        <mxCell id="SCVMTBWpLvtzJIhz15lM-1" value="" style="line;strokeWidth=2;html=1;fontSize=14;" parent="1" vertex="1">
          <mxGeometry x="52.5" y="139.5" width="1707.5" height="10" as="geometry" />
        </mxCell>
        <mxCell id="7OVz4w7n9kzEPWy-4BBC-3" value="" style="rounded=0;whiteSpace=wrap;html=1;fillColor=#EAEDED;fontSize=22;fontColor=#FFFFFF;strokeColor=none;labelBackgroundColor=none;" parent="1" vertex="1">
          <mxGeometry x="820" y="200.5" width="390" height="999.5" as="geometry" />
        </mxCell>
        <mxCell id="7OVz4w7n9kzEPWy-4BBC-4" value="1" style="rounded=1;whiteSpace=wrap;html=1;fillColor=#007CBD;strokeColor=none;fontColor=#FFFFFF;fontStyle=1;fontSize=22;labelBackgroundColor=none;" parent="1" vertex="1">
          <mxGeometry x="838" y="212.5" width="40" height="38" as="geometry" />
        </mxCell>
        <mxCell id="7OVz4w7n9kzEPWy-4BBC-5" value="2" style="rounded=1;whiteSpace=wrap;html=1;fillColor=#007CBD;strokeColor=none;fontColor=#FFFFFF;fontStyle=1;fontSize=22;labelBackgroundColor=none;" parent="1" vertex="1">
          <mxGeometry x="838" y="414" width="40" height="38" as="geometry" />
        </mxCell>
        <mxCell id="7OVz4w7n9kzEPWy-4BBC-6" value="3" style="rounded=1;whiteSpace=wrap;html=1;fillColor=#007CBD;strokeColor=none;fontColor=#FFFFFF;fontStyle=1;fontSize=22;labelBackgroundColor=none;" parent="1" vertex="1">
          <mxGeometry x="838" y="580" width="40" height="38" as="geometry" />
        </mxCell>
        <mxCell id="7OVz4w7n9kzEPWy-4BBC-8" value="4" style="rounded=1;whiteSpace=wrap;html=1;fillColor=#007CBD;strokeColor=none;fontColor=#FFFFFF;fontStyle=1;fontSize=22;labelBackgroundColor=none;" parent="1" vertex="1">
          <mxGeometry x="838" y="750" width="40" height="38" as="geometry" />
        </mxCell>
        <mxCell id="7OVz4w7n9kzEPWy-4BBC-13" value="Create a new AWS RestAPI Gateway with a proxy+ endpoint which will greedily match any path on an API request that does not match an endpoint with a higher priority.&lt;br&gt;&lt;br&gt;This request will be proxied to the existing load balancer that likely fronts your EC2 auto-scaling group.&amp;nbsp; If you do authorization in your EC2 services layer, then you&#39;ll need to set the proxy+ endpont to use no authorizers" style="text;html=1;align=left;verticalAlign=top;spacingTop=-4;fontSize=14;labelBackgroundColor=none;whiteSpace=wrap;" parent="1" vertex="1">
          <mxGeometry x="889.5" y="212" width="310.5" height="118" as="geometry" />
        </mxCell>
        <mxCell id="7OVz4w7n9kzEPWy-4BBC-14" value="Assuming you are using Route53 for domain name resolution, create a CNAME record for a new API Domain (ex. api2.your-domain.com) with the hostname from the above AWS RestAPI Gateway as the resolved value.&amp;nbsp; At this point, you have a replica of your existing APIs available on the api2.your-domain.com URI." style="text;html=1;align=left;verticalAlign=top;spacingTop=-4;fontSize=14;labelBackgroundColor=none;whiteSpace=wrap;" parent="1" vertex="1">
          <mxGeometry x="890.5" y="414" width="289.5" height="115" as="geometry" />
        </mxCell>
        <mxCell id="7OVz4w7n9kzEPWy-4BBC-16" value="&lt;span&gt;Create a feature flag in your application to change api calls to the new feature endpoint. If you are changing the interface of the endpoint in your new API you also may have to make additional changes behind that feature flag to deal with a new consistency model (atomic vs eventual) or flow.&amp;nbsp; &lt;br&gt;&lt;br&gt;Using a fully featured tool like Launch Darkly, you can then adjust down to the user level which user&#39;s, segments of users or percentage of users will start utilizing your new endpoint or feature in near real time.&amp;nbsp; Feature flags can be at any level from a simple API endpoint up to the page or component that a link ends up taking a user to when clicked.&lt;br&gt;&lt;br&gt;This is where you can do some really fine grained experimentation by routing specific users to your new implementations and get feedback.&amp;nbsp; I&#39;d highly recommend getting some user telemetry into your front-end like Datadog RUM or AWS Cloudwatch RUM so you can monitor usage of your experimental features.&lt;br&gt;&lt;/span&gt;" style="text;html=1;align=left;verticalAlign=top;spacingTop=-4;fontSize=14;labelBackgroundColor=none;whiteSpace=wrap;" parent="1" vertex="1">
          <mxGeometry x="889.5" y="740" width="290.5" height="211" as="geometry" />
        </mxCell>
        <mxCell id="7OVz4w7n9kzEPWy-4BBC-19" value="Create a new endpoint that can route to a lambda, load balancer or other http resource inside or outside of your account.&amp;nbsp; By creating a new endpoint that matches the path on your existing API, you can create an entirely new handler to test any ideas you have on new architectures.&amp;nbsp;&amp;nbsp;" style="text;html=1;align=left;verticalAlign=top;spacingTop=-4;fontSize=14;labelBackgroundColor=none;whiteSpace=wrap;" parent="1" vertex="1">
          <mxGeometry x="890.5" y="580" width="289.5" height="113" as="geometry" />
        </mxCell>
        <mxCell id="La0AM62QfrlffkRoR9J9-1" value="" style="sketch=0;points=[[0,0,0],[0.25,0,0],[0.5,0,0],[0.75,0,0],[1,0,0],[0,1,0],[0.25,1,0],[0.5,1,0],[0.75,1,0],[1,1,0],[0,0.25,0],[0,0.5,0],[0,0.75,0],[1,0.25,0],[1,0.5,0],[1,0.75,0]];outlineConnect=0;fontColor=#232F3E;fillColor=#01A88D;strokeColor=#ffffff;dashed=0;verticalLabelPosition=bottom;verticalAlign=top;align=center;html=1;fontSize=12;fontStyle=0;aspect=fixed;shape=mxgraph.aws4.resourceIcon;resIcon=mxgraph.aws4.desktop_and_app_streaming;" vertex="1" parent="1">
          <mxGeometry x="130" y="170.5" width="78" height="78" as="geometry" />
        </mxCell>
        <mxCell id="La0AM62QfrlffkRoR9J9-2" value="" style="sketch=0;points=[[0,0,0],[0.25,0,0],[0.5,0,0],[0.75,0,0],[1,0,0],[0,1,0],[0.25,1,0],[0.5,1,0],[0.75,1,0],[1,1,0],[0,0.25,0],[0,0.5,0],[0,0.75,0],[1,0.25,0],[1,0.5,0],[1,0.75,0]];outlineConnect=0;fontColor=#232F3E;fillColor=#8C4FFF;strokeColor=#ffffff;dashed=0;verticalLabelPosition=bottom;verticalAlign=top;align=center;html=1;fontSize=12;fontStyle=0;aspect=fixed;shape=mxgraph.aws4.resourceIcon;resIcon=mxgraph.aws4.api_gateway;" vertex="1" parent="1">
          <mxGeometry x="130" y="414" width="78" height="78" as="geometry" />
        </mxCell>
        <mxCell id="La0AM62QfrlffkRoR9J9-3" value="" style="sketch=0;points=[[0,0,0],[0.25,0,0],[0.5,0,0],[0.75,0,0],[1,0,0],[0,1,0],[0.25,1,0],[0.5,1,0],[0.75,1,0],[1,1,0],[0,0.25,0],[0,0.5,0],[0,0.75,0],[1,0.25,0],[1,0.5,0],[1,0.75,0]];outlineConnect=0;fontColor=#232F3E;fillColor=#8C4FFF;strokeColor=#ffffff;dashed=0;verticalLabelPosition=bottom;verticalAlign=top;align=center;html=1;fontSize=12;fontStyle=0;aspect=fixed;shape=mxgraph.aws4.resourceIcon;resIcon=mxgraph.aws4.route_53;" vertex="1" parent="1">
          <mxGeometry x="130" y="300.5" width="78" height="78" as="geometry" />
        </mxCell>
        <mxCell id="La0AM62QfrlffkRoR9J9-21" style="edgeStyle=orthogonalEdgeStyle;rounded=0;orthogonalLoop=1;jettySize=auto;html=1;exitX=0.75;exitY=1;exitDx=0;exitDy=0;exitPerimeter=0;" edge="1" parent="1" source="La0AM62QfrlffkRoR9J9-5" target="La0AM62QfrlffkRoR9J9-16">
          <mxGeometry relative="1" as="geometry">
            <Array as="points">
              <mxPoint x="390" y="244" />
            </Array>
          </mxGeometry>
        </mxCell>
        <mxCell id="La0AM62QfrlffkRoR9J9-4" value="api.your-domain.com" style="text;html=1;strokeColor=none;fillColor=none;align=center;verticalAlign=middle;whiteSpace=wrap;rounded=0;fontSize=14;fontStyle=1" vertex="1" parent="1">
          <mxGeometry x="189.5" y="324.5" width="228.5" height="30" as="geometry" />
        </mxCell>
        <mxCell id="La0AM62QfrlffkRoR9J9-20" style="edgeStyle=orthogonalEdgeStyle;rounded=0;orthogonalLoop=1;jettySize=auto;html=1;exitX=0.25;exitY=1;exitDx=0;exitDy=0;exitPerimeter=0;entryX=0.5;entryY=0;entryDx=0;entryDy=0;" edge="1" parent="1" source="La0AM62QfrlffkRoR9J9-5" target="La0AM62QfrlffkRoR9J9-4">
          <mxGeometry relative="1" as="geometry">
            <mxPoint x="300" y="260" as="sourcePoint" />
            <Array as="points">
              <mxPoint x="328" y="280" />
              <mxPoint x="304" y="280" />
            </Array>
          </mxGeometry>
        </mxCell>
        <mxCell id="La0AM62QfrlffkRoR9J9-5" value="Feature(v1)" style="html=1;whiteSpace=wrap;strokeColor=none;fillColor=#0079D6;labelPosition=center;verticalLabelPosition=middle;verticalAlign=top;align=center;fontSize=12;outlineConnect=0;spacingTop=-6;fontColor=#FFFFFF;sketch=0;shape=mxgraph.sitemap.page;" vertex="1" parent="1">
          <mxGeometry x="298" y="174.5" width="120" height="70" as="geometry" />
        </mxCell>
        <mxCell id="La0AM62QfrlffkRoR9J9-23" value="" style="edgeStyle=orthogonalEdgeStyle;rounded=0;orthogonalLoop=1;jettySize=auto;html=1;exitX=0.25;exitY=1;exitDx=0;exitDy=0;exitPerimeter=0;entryX=0.5;entryY=0;entryDx=0;entryDy=0;" edge="1" parent="1" source="La0AM62QfrlffkRoR9J9-6">
          <mxGeometry relative="1" as="geometry">
            <mxPoint x="591.25" y="324.5" as="targetPoint" />
            <Array as="points">
              <mxPoint x="664" y="244" />
              <mxPoint x="664" y="280" />
              <mxPoint x="591" y="280" />
            </Array>
          </mxGeometry>
        </mxCell>
        <mxCell id="La0AM62QfrlffkRoR9J9-34" value="" style="edgeStyle=orthogonalEdgeStyle;rounded=0;orthogonalLoop=1;jettySize=auto;html=1;exitX=0.75;exitY=1;exitDx=0;exitDy=0;exitPerimeter=0;entryX=0.714;entryY=0.502;entryDx=0;entryDy=0;entryPerimeter=0;" edge="1" parent="1" target="La0AM62QfrlffkRoR9J9-33">
          <mxGeometry relative="1" as="geometry">
            <mxPoint x="723.5" y="244.5" as="sourcePoint" />
            <mxPoint x="720" y="420" as="targetPoint" />
            <Array as="points">
              <mxPoint x="723" y="300" />
              <mxPoint x="724" y="300" />
            </Array>
          </mxGeometry>
        </mxCell>
        <mxCell id="La0AM62QfrlffkRoR9J9-6" value="Feature(v2)" style="html=1;whiteSpace=wrap;strokeColor=none;fillColor=#0079D6;labelPosition=center;verticalLabelPosition=middle;verticalAlign=top;align=center;fontSize=12;outlineConnect=0;spacingTop=-6;fontColor=#FFFFFF;sketch=0;shape=mxgraph.sitemap.page;" vertex="1" parent="1">
          <mxGeometry x="635.5" y="174.5" width="120" height="70" as="geometry" />
        </mxCell>
        <mxCell id="La0AM62QfrlffkRoR9J9-8" value="Route53&lt;br&gt;DNS" style="text;html=1;strokeColor=none;fillColor=none;align=center;verticalAlign=middle;whiteSpace=wrap;rounded=0;" vertex="1" parent="1">
          <mxGeometry x="70" y="300.5" width="60" height="30" as="geometry" />
        </mxCell>
        <mxCell id="La0AM62QfrlffkRoR9J9-9" value="User App" style="text;html=1;strokeColor=none;fillColor=none;align=center;verticalAlign=middle;whiteSpace=wrap;rounded=0;" vertex="1" parent="1">
          <mxGeometry x="70" y="170.5" width="60" height="30" as="geometry" />
        </mxCell>
        <mxCell id="La0AM62QfrlffkRoR9J9-10" value="" style="sketch=0;points=[[0,0,0],[0.25,0,0],[0.5,0,0],[0.75,0,0],[1,0,0],[0,1,0],[0.25,1,0],[0.5,1,0],[0.75,1,0],[1,1,0],[0,0.25,0],[0,0.5,0],[0,0.75,0],[1,0.25,0],[1,0.5,0],[1,0.75,0]];outlineConnect=0;fontColor=#232F3E;fillColor=#8C4FFF;strokeColor=#ffffff;dashed=0;verticalLabelPosition=bottom;verticalAlign=top;align=center;html=1;fontSize=12;fontStyle=0;aspect=fixed;shape=mxgraph.aws4.resourceIcon;resIcon=mxgraph.aws4.elastic_load_balancing;" vertex="1" parent="1">
          <mxGeometry x="130" y="720" width="78" height="78" as="geometry" />
        </mxCell>
        <mxCell id="La0AM62QfrlffkRoR9J9-11" value="" style="sketch=0;points=[[0,0,0],[0.25,0,0],[0.5,0,0],[0.75,0,0],[1,0,0],[0,1,0],[0.25,1,0],[0.5,1,0],[0.75,1,0],[1,1,0],[0,0.25,0],[0,0.5,0],[0,0.75,0],[1,0.25,0],[1,0.5,0],[1,0.75,0]];outlineConnect=0;fontColor=#232F3E;fillColor=#ED7100;strokeColor=#ffffff;dashed=0;verticalLabelPosition=bottom;verticalAlign=top;align=center;html=1;fontSize=12;fontStyle=0;aspect=fixed;shape=mxgraph.aws4.resourceIcon;resIcon=mxgraph.aws4.ec2;" vertex="1" parent="1">
          <mxGeometry x="130" y="870" width="78" height="78" as="geometry" />
        </mxCell>
        <mxCell id="La0AM62QfrlffkRoR9J9-61" style="edgeStyle=orthogonalEdgeStyle;rounded=0;orthogonalLoop=1;jettySize=auto;html=1;" edge="1" parent="1" source="La0AM62QfrlffkRoR9J9-13" target="La0AM62QfrlffkRoR9J9-60">
          <mxGeometry relative="1" as="geometry">
            <Array as="points">
              <mxPoint x="330" y="1240" />
              <mxPoint x="481" y="1240" />
            </Array>
          </mxGeometry>
        </mxCell>
        <mxCell id="La0AM62QfrlffkRoR9J9-13" value="" style="sketch=0;outlineConnect=0;fontColor=#232F3E;gradientColor=none;fillColor=#ED7100;strokeColor=none;dashed=0;verticalLabelPosition=bottom;verticalAlign=top;align=center;html=1;fontSize=12;fontStyle=0;aspect=fixed;pointerEvents=1;shape=mxgraph.aws4.m4_instance;" vertex="1" parent="1">
          <mxGeometry x="306" y="885" width="48" height="48" as="geometry" />
        </mxCell>
        <mxCell id="La0AM62QfrlffkRoR9J9-62" style="edgeStyle=orthogonalEdgeStyle;rounded=0;orthogonalLoop=1;jettySize=auto;html=1;" edge="1" parent="1" source="La0AM62QfrlffkRoR9J9-14">
          <mxGeometry relative="1" as="geometry">
            <mxPoint x="480" y="1280" as="targetPoint" />
            <Array as="points">
              <mxPoint x="390" y="1240" />
              <mxPoint x="480" y="1240" />
            </Array>
          </mxGeometry>
        </mxCell>
        <mxCell id="La0AM62QfrlffkRoR9J9-14" value="" style="sketch=0;outlineConnect=0;fontColor=#232F3E;gradientColor=none;fillColor=#ED7100;strokeColor=none;dashed=0;verticalLabelPosition=bottom;verticalAlign=top;align=center;html=1;fontSize=12;fontStyle=0;aspect=fixed;pointerEvents=1;shape=mxgraph.aws4.m4_instance;" vertex="1" parent="1">
          <mxGeometry x="366" y="885" width="48" height="48" as="geometry" />
        </mxCell>
        <mxCell id="La0AM62QfrlffkRoR9J9-63" style="edgeStyle=orthogonalEdgeStyle;rounded=0;orthogonalLoop=1;jettySize=auto;html=1;" edge="1" parent="1" source="La0AM62QfrlffkRoR9J9-15">
          <mxGeometry relative="1" as="geometry">
            <mxPoint x="480" y="1280" as="targetPoint" />
            <Array as="points">
              <mxPoint x="450" y="1240" />
              <mxPoint x="480" y="1240" />
            </Array>
          </mxGeometry>
        </mxCell>
        <mxCell id="La0AM62QfrlffkRoR9J9-15" value="" style="sketch=0;outlineConnect=0;fontColor=#232F3E;gradientColor=none;fillColor=#ED7100;strokeColor=none;dashed=0;verticalLabelPosition=bottom;verticalAlign=top;align=center;html=1;fontSize=12;fontStyle=0;aspect=fixed;pointerEvents=1;shape=mxgraph.aws4.m4_instance;" vertex="1" parent="1">
          <mxGeometry x="426" y="885" width="48" height="48" as="geometry" />
        </mxCell>
        <mxCell id="La0AM62QfrlffkRoR9J9-17" value="" style="edgeStyle=orthogonalEdgeStyle;rounded=0;orthogonalLoop=1;jettySize=auto;html=1;" edge="1" parent="1" source="La0AM62QfrlffkRoR9J9-16" target="La0AM62QfrlffkRoR9J9-15">
          <mxGeometry relative="1" as="geometry">
            <Array as="points">
              <mxPoint x="390" y="840" />
              <mxPoint x="450" y="840" />
            </Array>
          </mxGeometry>
        </mxCell>
        <mxCell id="La0AM62QfrlffkRoR9J9-18" style="edgeStyle=orthogonalEdgeStyle;rounded=0;orthogonalLoop=1;jettySize=auto;html=1;" edge="1" parent="1" source="La0AM62QfrlffkRoR9J9-16" target="La0AM62QfrlffkRoR9J9-14">
          <mxGeometry relative="1" as="geometry" />
        </mxCell>
        <mxCell id="La0AM62QfrlffkRoR9J9-19" style="edgeStyle=orthogonalEdgeStyle;rounded=0;orthogonalLoop=1;jettySize=auto;html=1;" edge="1" parent="1" source="La0AM62QfrlffkRoR9J9-16" target="La0AM62QfrlffkRoR9J9-13">
          <mxGeometry relative="1" as="geometry">
            <Array as="points">
              <mxPoint x="390" y="840" />
              <mxPoint x="330" y="840" />
            </Array>
          </mxGeometry>
        </mxCell>
        <mxCell id="La0AM62QfrlffkRoR9J9-16" value="" style="sketch=0;outlineConnect=0;fontColor=#232F3E;gradientColor=none;fillColor=#8C4FFF;strokeColor=none;dashed=0;verticalLabelPosition=bottom;verticalAlign=top;align=center;html=1;fontSize=12;fontStyle=0;aspect=fixed;pointerEvents=1;shape=mxgraph.aws4.application_load_balancer;" vertex="1" parent="1">
          <mxGeometry x="351" y="720" width="78" height="78" as="geometry" />
        </mxCell>
        <mxCell id="La0AM62QfrlffkRoR9J9-22" value="api2.your-domain.com" style="text;html=1;strokeColor=none;fillColor=none;align=center;verticalAlign=middle;whiteSpace=wrap;rounded=0;fontSize=14;fontStyle=1" vertex="1" parent="1">
          <mxGeometry x="461" y="324.5" width="228.5" height="30" as="geometry" />
        </mxCell>
        <mxCell id="La0AM62QfrlffkRoR9J9-27" value="" style="group" vertex="1" connectable="0" parent="1">
          <mxGeometry x="540" y="440" width="80" height="80" as="geometry" />
        </mxCell>
        <mxCell id="La0AM62QfrlffkRoR9J9-24" value="/{proxy+}" style="text;html=1;strokeColor=none;fillColor=none;align=center;verticalAlign=middle;whiteSpace=wrap;rounded=0;fontSize=14;fontStyle=1" vertex="1" parent="La0AM62QfrlffkRoR9J9-27">
          <mxGeometry y="50" width="80" height="30" as="geometry" />
        </mxCell>
        <mxCell id="La0AM62QfrlffkRoR9J9-26" value="" style="sketch=0;outlineConnect=0;fontColor=#232F3E;gradientColor=none;fillColor=#8C4FFF;strokeColor=none;dashed=0;verticalLabelPosition=bottom;verticalAlign=top;align=center;html=1;fontSize=12;fontStyle=0;aspect=fixed;pointerEvents=1;shape=mxgraph.aws4.endpoint;" vertex="1" parent="La0AM62QfrlffkRoR9J9-27">
          <mxGeometry x="15" width="50" height="50" as="geometry" />
        </mxCell>
        <mxCell id="La0AM62QfrlffkRoR9J9-28" value="" style="group" vertex="1" connectable="0" parent="1">
          <mxGeometry x="708.5" y="440" width="80" height="80" as="geometry" />
        </mxCell>
        <mxCell id="La0AM62QfrlffkRoR9J9-29" value="/feature-N.." style="text;html=1;strokeColor=none;fillColor=none;align=center;verticalAlign=middle;whiteSpace=wrap;rounded=0;fontSize=14;fontStyle=1" vertex="1" parent="La0AM62QfrlffkRoR9J9-28">
          <mxGeometry y="50" width="80" height="30" as="geometry" />
        </mxCell>
        <mxCell id="La0AM62QfrlffkRoR9J9-30" value="" style="sketch=0;outlineConnect=0;fontColor=#232F3E;gradientColor=none;fillColor=#8C4FFF;strokeColor=none;dashed=0;verticalLabelPosition=bottom;verticalAlign=top;align=center;html=1;fontSize=12;fontStyle=0;aspect=fixed;pointerEvents=1;shape=mxgraph.aws4.endpoint;" vertex="1" parent="La0AM62QfrlffkRoR9J9-28">
          <mxGeometry x="15" width="50" height="50" as="geometry" />
        </mxCell>
        <mxCell id="La0AM62QfrlffkRoR9J9-33" value="" style="shape=crossbar;whiteSpace=wrap;html=1;rounded=1;" vertex="1" parent="1">
          <mxGeometry x="545.5" y="419" width="250" height="20" as="geometry" />
        </mxCell>
        <mxCell id="La0AM62QfrlffkRoR9J9-36" value="" style="sketch=0;outlineConnect=0;fontColor=#232F3E;gradientColor=none;fillColor=#ED7100;strokeColor=none;dashed=0;verticalLabelPosition=bottom;verticalAlign=top;align=center;html=1;fontSize=12;fontStyle=0;aspect=fixed;pointerEvents=1;shape=mxgraph.aws4.lambda_function;" vertex="1" parent="1">
          <mxGeometry x="755.5" y="1036" width="48" height="48" as="geometry" />
        </mxCell>
        <mxCell id="La0AM62QfrlffkRoR9J9-38" value="REST API Gateway" style="text;html=1;strokeColor=none;fillColor=none;align=center;verticalAlign=middle;whiteSpace=wrap;rounded=0;" vertex="1" parent="1">
          <mxGeometry x="70" y="414" width="60" height="30" as="geometry" />
        </mxCell>
        <mxCell id="La0AM62QfrlffkRoR9J9-39" value="Elastic Load Balancer" style="text;html=1;strokeColor=none;fillColor=none;align=center;verticalAlign=middle;whiteSpace=wrap;rounded=0;" vertex="1" parent="1">
          <mxGeometry x="70" y="720" width="60" height="50" as="geometry" />
        </mxCell>
        <mxCell id="La0AM62QfrlffkRoR9J9-40" value="EC2 Compute" style="text;html=1;strokeColor=none;fillColor=none;align=center;verticalAlign=middle;whiteSpace=wrap;rounded=0;" vertex="1" parent="1">
          <mxGeometry x="70" y="870" width="60" height="50" as="geometry" />
        </mxCell>
        <mxCell id="La0AM62QfrlffkRoR9J9-41" value="Lambda" style="text;html=1;strokeColor=none;fillColor=none;align=center;verticalAlign=middle;whiteSpace=wrap;rounded=0;" vertex="1" parent="1">
          <mxGeometry x="70" y="1030.5" width="60" height="29.5" as="geometry" />
        </mxCell>
        <mxCell id="La0AM62QfrlffkRoR9J9-42" value="" style="endArrow=none;dashed=1;html=1;dashPattern=1 3;strokeWidth=2;rounded=0;" edge="1" parent="1">
          <mxGeometry width="50" height="50" relative="1" as="geometry">
            <mxPoint x="220" y="1201.7391304347825" as="sourcePoint" />
            <mxPoint x="220" y="80" as="targetPoint" />
          </mxGeometry>
        </mxCell>
        <mxCell id="La0AM62QfrlffkRoR9J9-43" value="" style="endArrow=none;dashed=1;html=1;dashPattern=1 3;strokeWidth=2;rounded=0;" edge="1" parent="1">
          <mxGeometry width="50" height="50" relative="1" as="geometry">
            <mxPoint x="480" y="1201.7391304347825" as="sourcePoint" />
            <mxPoint x="480" y="80" as="targetPoint" />
          </mxGeometry>
        </mxCell>
        <mxCell id="La0AM62QfrlffkRoR9J9-44" value="Original Architecture" style="text;html=1;strokeColor=none;fillColor=none;align=center;verticalAlign=middle;whiteSpace=wrap;rounded=0;fontSize=14;fontStyle=1" vertex="1" parent="1">
          <mxGeometry x="232.5" y="109.5" width="228.5" height="30" as="geometry" />
        </mxCell>
        <mxCell id="La0AM62QfrlffkRoR9J9-64" style="edgeStyle=orthogonalEdgeStyle;rounded=0;orthogonalLoop=1;jettySize=auto;html=1;entryX=0.497;entryY=0;entryDx=0;entryDy=0;entryPerimeter=0;" edge="1" parent="1" source="La0AM62QfrlffkRoR9J9-46" target="La0AM62QfrlffkRoR9J9-60">
          <mxGeometry relative="1" as="geometry">
            <Array as="points">
              <mxPoint x="520" y="1240" />
              <mxPoint x="480" y="1240" />
            </Array>
          </mxGeometry>
        </mxCell>
        <mxCell id="La0AM62QfrlffkRoR9J9-46" value="" style="sketch=0;outlineConnect=0;fontColor=#232F3E;gradientColor=none;fillColor=#ED7100;strokeColor=none;dashed=0;verticalLabelPosition=bottom;verticalAlign=top;align=center;html=1;fontSize=12;fontStyle=0;aspect=fixed;pointerEvents=1;shape=mxgraph.aws4.m4_instance;" vertex="1" parent="1">
          <mxGeometry x="495.75" y="885" width="48" height="48" as="geometry" />
        </mxCell>
        <mxCell id="La0AM62QfrlffkRoR9J9-65" style="edgeStyle=orthogonalEdgeStyle;rounded=0;orthogonalLoop=1;jettySize=auto;html=1;" edge="1" parent="1" source="La0AM62QfrlffkRoR9J9-47">
          <mxGeometry relative="1" as="geometry">
            <mxPoint x="480" y="1280" as="targetPoint" />
            <Array as="points">
              <mxPoint x="580" y="1240" />
              <mxPoint x="480" y="1240" />
            </Array>
          </mxGeometry>
        </mxCell>
        <mxCell id="La0AM62QfrlffkRoR9J9-47" value="" style="sketch=0;outlineConnect=0;fontColor=#232F3E;gradientColor=none;fillColor=#ED7100;strokeColor=none;dashed=0;verticalLabelPosition=bottom;verticalAlign=top;align=center;html=1;fontSize=12;fontStyle=0;aspect=fixed;pointerEvents=1;shape=mxgraph.aws4.m4_instance;" vertex="1" parent="1">
          <mxGeometry x="555.75" y="885" width="48" height="48" as="geometry" />
        </mxCell>
        <mxCell id="La0AM62QfrlffkRoR9J9-48" value="" style="edgeStyle=orthogonalEdgeStyle;rounded=0;orthogonalLoop=1;jettySize=auto;html=1;" edge="1" parent="1" source="La0AM62QfrlffkRoR9J9-51" target="La0AM62QfrlffkRoR9J9-53">
          <mxGeometry relative="1" as="geometry">
            <mxPoint x="640.75" y="880" as="targetPoint" />
            <Array as="points">
              <mxPoint x="579.75" y="840" />
              <mxPoint x="636.75" y="840" />
            </Array>
          </mxGeometry>
        </mxCell>
        <mxCell id="La0AM62QfrlffkRoR9J9-49" style="edgeStyle=orthogonalEdgeStyle;rounded=0;orthogonalLoop=1;jettySize=auto;html=1;" edge="1" parent="1" source="La0AM62QfrlffkRoR9J9-51" target="La0AM62QfrlffkRoR9J9-47">
          <mxGeometry relative="1" as="geometry" />
        </mxCell>
        <mxCell id="La0AM62QfrlffkRoR9J9-50" style="edgeStyle=orthogonalEdgeStyle;rounded=0;orthogonalLoop=1;jettySize=auto;html=1;" edge="1" parent="1" source="La0AM62QfrlffkRoR9J9-51" target="La0AM62QfrlffkRoR9J9-46">
          <mxGeometry relative="1" as="geometry">
            <Array as="points">
              <mxPoint x="579.75" y="840" />
              <mxPoint x="519.75" y="840" />
            </Array>
          </mxGeometry>
        </mxCell>
        <mxCell id="La0AM62QfrlffkRoR9J9-51" value="" style="sketch=0;outlineConnect=0;fontColor=#232F3E;gradientColor=none;fillColor=#8C4FFF;strokeColor=none;dashed=0;verticalLabelPosition=bottom;verticalAlign=top;align=center;html=1;fontSize=12;fontStyle=0;aspect=fixed;pointerEvents=1;shape=mxgraph.aws4.application_load_balancer;" vertex="1" parent="1">
          <mxGeometry x="540.75" y="720" width="78" height="78" as="geometry" />
        </mxCell>
        <mxCell id="La0AM62QfrlffkRoR9J9-52" style="edgeStyle=orthogonalEdgeStyle;rounded=0;orthogonalLoop=1;jettySize=auto;html=1;" edge="1" parent="1" source="La0AM62QfrlffkRoR9J9-24" target="La0AM62QfrlffkRoR9J9-51">
          <mxGeometry relative="1" as="geometry" />
        </mxCell>
        <mxCell id="La0AM62QfrlffkRoR9J9-66" style="edgeStyle=orthogonalEdgeStyle;rounded=0;orthogonalLoop=1;jettySize=auto;html=1;" edge="1" parent="1" source="La0AM62QfrlffkRoR9J9-53" target="La0AM62QfrlffkRoR9J9-60">
          <mxGeometry relative="1" as="geometry">
            <Array as="points">
              <mxPoint x="637" y="1240" />
              <mxPoint x="479" y="1240" />
            </Array>
          </mxGeometry>
        </mxCell>
        <mxCell id="La0AM62QfrlffkRoR9J9-53" value="" style="sketch=0;outlineConnect=0;fontColor=#232F3E;gradientColor=none;fillColor=#ED7100;strokeColor=none;dashed=0;verticalLabelPosition=bottom;verticalAlign=top;align=center;html=1;fontSize=12;fontStyle=0;aspect=fixed;pointerEvents=1;shape=mxgraph.aws4.m4_instance;" vertex="1" parent="1">
          <mxGeometry x="612.75" y="885" width="48" height="48" as="geometry" />
        </mxCell>
        <mxCell id="La0AM62QfrlffkRoR9J9-56" value="" style="edgeStyle=orthogonalEdgeStyle;rounded=0;orthogonalLoop=1;jettySize=auto;html=1;" edge="1" parent="1" source="La0AM62QfrlffkRoR9J9-29" target="La0AM62QfrlffkRoR9J9-36">
          <mxGeometry relative="1" as="geometry">
            <mxPoint x="749" y="1039" as="targetPoint" />
            <mxPoint x="749" y="520" as="sourcePoint" />
            <Array as="points">
              <mxPoint x="750" y="920" />
              <mxPoint x="780" y="920" />
            </Array>
          </mxGeometry>
        </mxCell>
        <mxCell id="La0AM62QfrlffkRoR9J9-55" value="" style="sketch=0;points=[[0,0,0],[0.25,0,0],[0.5,0,0],[0.75,0,0],[1,0,0],[0,1,0],[0.25,1,0],[0.5,1,0],[0.75,1,0],[1,1,0],[0,0.25,0],[0,0.5,0],[0,0.75,0],[1,0.25,0],[1,0.5,0],[1,0.75,0]];outlineConnect=0;fontColor=#232F3E;fillColor=#8C4FFF;strokeColor=#ffffff;dashed=0;verticalLabelPosition=bottom;verticalAlign=top;align=center;html=1;fontSize=12;fontStyle=0;aspect=fixed;shape=mxgraph.aws4.resourceIcon;resIcon=mxgraph.aws4.serverless;" vertex="1" parent="1">
          <mxGeometry x="130" y="1014.5" width="78" height="78" as="geometry" />
        </mxCell>
        <mxCell id="La0AM62QfrlffkRoR9J9-58" value="" style="sketch=0;outlineConnect=0;fontColor=#232F3E;gradientColor=none;fillColor=#ED7100;strokeColor=none;dashed=0;verticalLabelPosition=bottom;verticalAlign=top;align=center;html=1;fontSize=12;fontStyle=0;aspect=fixed;pointerEvents=1;shape=mxgraph.aws4.instances;" vertex="1" parent="1">
          <mxGeometry x="696.5" y="1034.5" width="48" height="48" as="geometry" />
        </mxCell>
        <mxCell id="La0AM62QfrlffkRoR9J9-59" style="edgeStyle=orthogonalEdgeStyle;rounded=0;orthogonalLoop=1;jettySize=auto;html=1;" edge="1" parent="1" source="La0AM62QfrlffkRoR9J9-29" target="La0AM62QfrlffkRoR9J9-58">
          <mxGeometry relative="1" as="geometry">
            <Array as="points">
              <mxPoint x="750" y="920" />
              <mxPoint x="710" y="920" />
            </Array>
          </mxGeometry>
        </mxCell>
        <mxCell id="La0AM62QfrlffkRoR9J9-60" value="External Partner" style="ellipse;shape=cloud;whiteSpace=wrap;html=1;" vertex="1" parent="1">
          <mxGeometry x="348.75" y="1280.5" width="264" height="80" as="geometry" />
        </mxCell>
        <mxCell id="La0AM62QfrlffkRoR9J9-67" value="Architecture Experimentation" style="text;html=1;strokeColor=none;fillColor=none;align=center;verticalAlign=middle;whiteSpace=wrap;rounded=0;fontSize=14;fontStyle=1" vertex="1" parent="1">
          <mxGeometry x="545.5" y="109.5" width="228.5" height="30" as="geometry" />
        </mxCell>
        <mxCell id="La0AM62QfrlffkRoR9J9-68" value="" style="endArrow=none;dashed=1;html=1;dashPattern=1 3;strokeWidth=2;rounded=0;" edge="1" parent="1">
          <mxGeometry width="50" height="50" relative="1" as="geometry">
            <mxPoint x="1240" y="1201.7391304347825" as="sourcePoint" />
            <mxPoint x="1240" y="80" as="targetPoint" />
          </mxGeometry>
        </mxCell>
      </root>
    </mxGraphModel>
  </diagram>
</mxfile>
